<?xml version="1.0" encoding="utf-8"?>
<!-- Generator: Adobe Illustrator 28.0.0, SVG Export Plug-In . SVG Version: 6.00 Build 0)  -->
<svg version="1.1" id="Capa_1" xmlns="http://www.w3.org/2000/svg" xmlns:xlink="http://www.w3.org/1999/xlink" x="0px" y="0px"
	 viewBox="0 0 220 80" style="enable-background:new 0 0 220 80;" xml:space="preserve">
<style type="text/css">
	.st0{clip-path:url(#SVGID_00000054969746220385620500000013185061711609330563_);}
</style>
<g>
	<defs>
		<path id="SVGID_1_" d="M62.68,10.59L16.69,70.12l13.84-40.13L9.95,42.83l24.4-27.44l-2.47,16.15L62.68,10.59z M33.82,28.47
			l2.7-17.71L2.16,49.4l25.65-16.01L12.44,78L69.41,4.26L33.82,28.47z"/>
	</defs>
	<use xlink:href="#SVGID_1_"  style="overflow:visible;"/>
	<clipPath id="SVGID_00000111891650209668217940000014221528434088924607_">
		<use xlink:href="#SVGID_1_"  style="overflow:visible;"/>
	</clipPath>
	
		<rect x="2.13" y="4.04" style="clip-path:url(#SVGID_00000111891650209668217940000014221528434088924607_);" width="67.42" height="73.95"/>
</g>
<g>
	<path d="M50.45,52.76c-2.42,0-4.09-0.52-5.02-1.57c-0.64-0.74-0.96-1.78-0.96-3.12c0-0.57,0.06-1.19,0.18-1.85l1.04-5.83
		c0.76-4.27,3.5-6.41,8.23-6.41c1.96,0,3.44,0.42,4.46,1.25s1.52,1.98,1.52,3.43c0,0.68-0.1,1.35-0.29,2.01
		c-0.19,0.67-0.38,1.16-0.57,1.48l-0.28,0.51h-4.48c0.56-0.64,0.84-1.55,0.84-2.74c0-0.62-0.16-1.12-0.48-1.48
		c-0.32-0.36-0.79-0.54-1.42-0.54c-1.71,0-2.72,0.95-3.04,2.84l-0.89,5.12c-0.08,0.44-0.13,0.87-0.13,1.29c0,1.11,0.67,1.67,2,1.67
		c1.6,0,2.57-0.9,2.89-2.71h4.56l-0.13,0.73C57.81,50.8,55.13,52.76,50.45,52.76z"/>
	<path d="M70.99,34.17c1.92,0,3.29,0.42,4.1,1.27c0.61,0.64,0.91,1.45,0.91,2.43c0,0.34-0.03,0.69-0.1,1.06l-0.35,1.98
		c-0.2,1.1-0.55,1.98-1.05,2.66c-0.5,0.68-1.05,1.16-1.66,1.44l2.3,7.4h-5.12L67.9,45.6h-1.57l-1.04,6.81h-4.86l3.22-18.24H70.99z
		 M69.4,38.12h-1.9l-0.66,4.41h1.77c0.9,0,1.54-0.21,1.93-0.65c0.39-0.43,0.58-1,0.58-1.71C71.12,38.81,70.55,38.12,69.4,38.12z"/>
	<path d="M89.76,52.41H77.05l3.22-18.24h12.72l-0.71,3.95h-8.16l-0.58,3.42h6.74l-0.71,3.95h-6.74l-0.51,2.96h8.16L89.76,52.41z"/>
	<path d="M101.69,52.41l0.15-3.98h-4.23l-1.24,3.98h-4.84l6.51-18.24h8.36l0.1,18.24H101.69z M100.65,38.6l-2,6.43h3.32l0.28-6.43
		H100.65z"/>
	<path d="M125.5,38.12h-6.23l-2.51,14.29h-4.58l2.51-14.29h-6.26l0.71-3.95h17.07L125.5,38.12z"/>
	<path d="M132.85,34.17l-3.19,18.24h-4.58l3.22-18.24H132.85z"/>
	<path d="M140.73,47.98l4.81-13.8h4.94l-6.92,18.24h-8.11l-0.2-18.24h4.96l-0.08,13.8H140.73z"/>
	<path d="M162.36,52.41h-12.71l3.22-18.24h12.72l-0.71,3.95h-8.16l-0.58,3.42h6.74l-0.71,3.95h-6.74l-0.51,2.96h8.16L162.36,52.41z"
		/>
	<path d="M170.11,47.22c0,1.17,0.84,1.75,2.52,1.75c1.68,0,2.52-0.52,2.52-1.57c0-0.56-0.29-1.01-0.86-1.37
		c-0.57-0.35-1.27-0.65-2.09-0.89c-0.82-0.24-1.64-0.51-2.46-0.82c-0.82-0.31-1.52-0.8-2.09-1.47c-0.57-0.67-0.86-1.5-0.86-2.5
		c0-4.24,2.73-6.36,8.18-6.36c1.99,0,3.5,0.38,4.52,1.13c1.02,0.75,1.53,1.79,1.53,3.13c0,0.49-0.06,0.96-0.19,1.41
		c-0.13,0.45-0.26,0.76-0.39,0.95l-0.2,0.3h-4.48c0.37-0.39,0.56-0.88,0.56-1.47c0-1.1-0.72-1.65-2.15-1.65
		c-1.81,0-2.71,0.57-2.71,1.72c0,0.57,0.29,1.03,0.86,1.37c0.57,0.34,1.27,0.6,2.09,0.8s1.64,0.43,2.47,0.72
		c0.83,0.29,1.53,0.76,2.1,1.43c0.57,0.67,0.86,1.53,0.86,2.6c0,2.15-0.64,3.74-1.92,4.77c-1.28,1.04-3.26,1.56-5.93,1.56
		s-4.49-0.47-5.47-1.42c-0.73-0.71-1.09-1.69-1.09-2.94c0-0.47,0.05-0.99,0.15-1.55l0.08-0.41h4.56l-0.05,0.3
		C170.12,46.93,170.11,47.08,170.11,47.22z"/>
	<path d="M199.74,38.12h-6.23l-2.51,14.29h-4.58l2.51-14.29h-6.26l0.71-3.95h17.07L199.74,38.12z"/>
	<path d="M216.59,34.17l-3.19,18.24h-4.58l1.17-6.59h-4.94l-1.14,6.59h-4.58l3.22-18.24h4.56l-1.37,7.7h4.94l1.37-7.7H216.59z"/>
</g>
</svg>
